<?xml version="1.0" encoding="UTF-8"?>
<svg id="a" data-name="Layer 1" xmlns="http://www.w3.org/2000/svg" width="4.88in" height="3.21in" viewBox="0 0 351 231">
  <path d="m138.8,11.49H38.67c-14.77,0-26.74,11.97-26.74,26.74v16.71c0,14.77,11.97,26.74,26.74,26.74h11.71l-6.82,19.58,21.22-19.58h74.02c14.77,0,26.74-11.97,26.74-26.74v-16.71c0-14.77-11.97-26.74-26.74-26.74Z" fill="#335c64"/>
  <g>
    <path d="m26.11,38.47h5.41c.52,0,.95.12,1.3.36.35.24.57.54.66.91l4.06,15.14c.22.83.4,1.64.54,2.43.14.79.27,1.58.4,2.38.2-.79.42-1.58.65-2.38.23-.79.47-1.6.73-2.43l4.7-15.19c.11-.37.33-.67.66-.91.33-.24.72-.36,1.16-.36h3.01c.5,0,.91.12,1.24.36.33.24.55.54.66.91l4.64,15.47c.24.79.46,1.56.65,2.31.19.75.38,1.5.57,2.25.13-.79.27-1.58.43-2.38.16-.79.35-1.61.59-2.46l4.2-15.14c.09-.37.31-.67.66-.91.35-.24.75-.36,1.22-.36h5.17l-8.98,28.34h-5.5c-.59,0-1.01-.4-1.27-1.22l-5.11-16.38c-.17-.53-.32-1.07-.46-1.62-.14-.54-.25-1.08-.34-1.62-.11.55-.23,1.1-.36,1.64-.13.54-.28,1.09-.44,1.64l-5.17,16.33c-.26.81-.76,1.22-1.49,1.22h-5.22l-8.98-28.34Z" fill="#fff"/>
    <path d="m85.37,38.03c2.12,0,4.04.34,5.76,1.02,1.72.68,3.19,1.65,4.41,2.9,1.22,1.25,2.15,2.78,2.82,4.59.66,1.81.99,3.82.99,6.05s-.33,4.27-.99,6.08c-.66,1.81-1.6,3.34-2.82,4.61s-2.68,2.25-4.41,2.93-3.64,1.02-5.76,1.02-4.04-.34-5.77-1.02c-1.73-.68-3.21-1.66-4.43-2.93-1.23-1.27-2.17-2.81-2.85-4.61-.67-1.81-1.01-3.83-1.01-6.08s.34-4.25,1.01-6.05c.67-1.81,1.62-3.33,2.85-4.59,1.22-1.25,2.7-2.22,4.43-2.9,1.73-.68,3.66-1.02,5.77-1.02Zm0,23.95c2.36,0,4.1-.79,5.23-2.38s1.7-3.9,1.7-6.96-.57-5.39-1.7-6.99c-1.13-1.6-2.88-2.4-5.23-2.4s-4.16.8-5.3,2.42c-1.14,1.61-1.71,3.94-1.71,6.98s.57,5.36,1.71,6.95c1.14,1.59,2.91,2.39,5.3,2.39Z" fill="#fff"/>
    <path d="m104.68,66.81v-28.34h4c.7,0,1.19.13,1.46.39.28.26.46.7.55,1.32l.41,3.43c1.01-1.75,2.2-3.13,3.56-4.14,1.36-1.01,2.89-1.52,4.59-1.52,1.4,0,2.56.32,3.48.97l-.88,5.11c-.06.33-.18.57-.36.7-.18.14-.43.21-.75.21-.28,0-.65-.07-1.13-.19-.48-.13-1.11-.19-1.91-.19-1.42,0-2.63.39-3.65,1.17s-1.87,1.93-2.57,3.44v17.65h-6.82Z" fill="#fff"/>
    <path d="m147.19,66.81c-.88,0-1.46-.41-1.74-1.24l-.55-2.73c-.59.66-1.21,1.26-1.85,1.8-.65.53-1.34.99-2.09,1.38s-1.55.69-2.4.9-1.78.32-2.78.32c-1.55,0-2.97-.32-4.25-.97-1.29-.64-2.4-1.58-3.33-2.8-.93-1.22-1.65-2.74-2.15-4.54-.51-1.81-.76-3.87-.76-6.19,0-2.1.29-4.05.86-5.86.57-1.81,1.39-3.37,2.46-4.7,1.07-1.32,2.35-2.36,3.84-3.11,1.49-.75,3.17-1.12,5.03-1.12,1.58,0,2.94.25,4.06.76,1.12.51,2.13,1.18,3.01,2.03v-14.98h6.82v41.05h-4.17Zm-9.09-5c1.42,0,2.62-.29,3.62-.88.99-.59,1.93-1.43,2.82-2.52v-12.71c-.77-.94-1.62-1.6-2.53-1.99-.91-.39-1.89-.58-2.94-.58s-1.97.19-2.8.58-1.55.97-2.13,1.75c-.58.78-1.03,1.78-1.34,2.98-.31,1.21-.47,2.63-.47,4.27s.13,3.06.4,4.21c.27,1.15.65,2.09,1.15,2.82.5.73,1.11,1.25,1.82,1.57.72.32,1.52.48,2.4.48Z" fill="#fff"/>
  </g>
  <path d="m77.29,85.24h234.19c14.77,0,26.74,11.97,26.74,26.74v16.71c0,14.77-11.97,26.74-26.74,26.74h-11.71s6.82,19.58,6.82,19.58l-21.22-19.58H77.29c-14.77,0-26.74-11.97-26.74-26.74v-16.71c0-14.77,11.97-26.74,26.74-26.74Z" fill="#ea7e73"/>
  <g>
    <path d="m81.66,106.74c1.2,0,2.31.15,3.33.44,1.02.29,1.94.71,2.75,1.24h7.04v.91c0,.46-.26.71-.77.75l-4.17.3c.52.7.91,1.49,1.19,2.36.28.87.41,1.81.41,2.8,0,1.32-.24,2.53-.72,3.61-.48,1.08-1.15,2-2,2.76-.86.77-1.88,1.36-3.08,1.78-1.2.42-2.52.64-3.98.64-1.58,0-3.02-.24-4.31-.72-.77.44-1.38.97-1.82,1.57-.44.61-.66,1.2-.66,1.77,0,.79.28,1.4.83,1.82.55.42,1.28.73,2.2.93.91.19,1.95.32,3.12.37,1.17.05,2.36.12,3.56.18,1.21.06,2.39.18,3.56.35,1.17.16,2.21.46,3.12.87.91.41,1.64,1,2.2,1.74.55.75.83,1.74.83,2.97,0,1.14-.29,2.24-.86,3.29-.57,1.05-1.4,1.98-2.47,2.79-1.08.81-2.38,1.46-3.91,1.95-1.53.49-3.24.73-5.14.73s-3.63-.2-5.08-.59c-1.45-.4-2.67-.93-3.66-1.6-.98-.67-1.73-1.45-2.22-2.33-.5-.88-.75-1.82-.75-2.82,0-1.45.48-2.71,1.44-3.75s2.27-1.86,3.95-2.43c-.92-.31-1.65-.76-2.2-1.35-.54-.59-.82-1.41-.82-2.46,0-.39.07-.79.22-1.22.15-.42.37-.84.66-1.26.29-.41.65-.81,1.06-1.17s.9-.7,1.45-.99c-1.31-.76-2.33-1.76-3.05-3.01-.73-1.25-1.09-2.72-1.09-4.39,0-1.33.23-2.53.7-3.61s1.13-2,1.99-2.78c.86-.78,1.89-1.37,3.11-1.8,1.22-.42,2.56-.64,4.03-.64Zm10.19,29.81c0-.87-.23-1.56-.68-2.08-.45-.52-1.05-.93-1.81-1.23s-1.63-.5-2.61-.62c-.98-.12-2.02-.21-3.09-.26-1.08-.05-2.16-.11-3.25-.16-1.09-.06-2.1-.17-3.04-.33-.7.27-1.35.59-1.95.95-.6.36-1.11.77-1.53,1.22-.42.45-.76.95-.99,1.49-.24.54-.36,1.14-.36,1.78,0,.81.21,1.56.62,2.25.41.69,1.02,1.29,1.82,1.8.8.51,1.78.91,2.94,1.2,1.16.29,2.5.44,4.01.44,1.4,0,2.7-.16,3.91-.47,1.21-.31,2.26-.76,3.15-1.32.89-.57,1.59-1.25,2.1-2.05s.76-1.66.76-2.6Zm-10.19-14c1.18,0,2.23-.17,3.15-.51.92-.34,1.69-.81,2.32-1.42.63-.61,1.1-1.33,1.42-2.18.32-.85.48-1.79.48-2.82s-.17-1.97-.5-2.83c-.33-.86-.81-1.59-1.45-2.2-.64-.61-1.41-1.08-2.32-1.41-.91-.33-1.95-.5-3.11-.5s-2.2.17-3.12.5-1.7.8-2.33,1.41c-.64.61-1.12,1.34-1.45,2.2-.33.86-.5,1.8-.5,2.83s.17,1.97.5,2.82c.33.85.81,1.57,1.45,2.18.64.61,1.41,1.08,2.33,1.42.92.34,1.96.51,3.12.51Z" fill="#fff"/>
    <path d="m110.83,106.77c1.55,0,2.98.27,4.3.8,1.32.53,2.46,1.31,3.42,2.33.97,1.02,1.72,2.28,2.26,3.77s.82,3.2.82,5.14c0,.4-.06.68-.18.83-.12.15-.31.22-.57.22h-19.83v.52c0,2.06.24,3.88.72,5.44.48,1.56,1.16,2.88,2.04,3.94.88,1.06,1.95,1.86,3.21,2.39,1.25.53,2.65.8,4.2.8,1.38,0,2.58-.15,3.59-.46,1.01-.3,1.86-.65,2.55-1.02.69-.38,1.24-.72,1.64-1.02.4-.3.7-.46.88-.46.24,0,.42.09.55.28l.72.88c-.44.55-1.03,1.07-1.75,1.55-.73.48-1.54.89-2.43,1.23-.89.34-1.85.61-2.87.81-1.02.2-2.05.3-3.08.3-1.88,0-3.59-.33-5.14-.98-1.55-.65-2.87-1.61-3.98-2.86-1.11-1.25-1.96-2.78-2.57-4.6-.6-1.81-.91-3.89-.91-6.23,0-1.97.28-3.79.84-5.46.56-1.67,1.37-3.1,2.43-4.31,1.06-1.21,2.36-2.15,3.89-2.83s3.28-1.02,5.24-1.02Zm.04,1.96c-1.42,0-2.69.22-3.81.66-1.12.44-2.09,1.08-2.91,1.91-.82.83-1.48,1.82-1.99,2.98-.51,1.16-.84,2.46-1.01,3.89h18.09c0-1.47-.2-2.8-.61-3.97-.41-1.17-.97-2.16-1.71-2.97-.74-.81-1.62-1.43-2.65-1.87-1.03-.43-2.17-.65-3.42-.65Z" fill="#fff"/>
    <path d="m128.7,134.7v-27.49h1.44c.48,0,.76.23.83.69l.25,4.14c1.25-1.58,2.71-2.86,4.38-3.83,1.67-.97,3.52-1.45,5.57-1.45,1.51,0,2.84.24,3.99.72,1.15.48,2.1,1.17,2.86,2.07.75.9,1.33,1.99,1.71,3.26.39,1.27.58,2.71.58,4.31v17.57h-2.62v-17.57c0-2.58-.59-4.6-1.77-6.07-1.18-1.46-2.98-2.2-5.41-2.2-1.81,0-3.48.47-5.03,1.4-1.55.93-2.93,2.2-4.14,3.83v20.61h-2.62Z" fill="#fff"/>
    <path d="m168.95,106.77c1.55,0,2.98.27,4.3.8,1.32.53,2.46,1.31,3.42,2.33.97,1.02,1.72,2.28,2.26,3.77s.82,3.2.82,5.14c0,.4-.06.68-.18.83-.12.15-.31.22-.57.22h-19.83v.52c0,2.06.24,3.88.72,5.44.48,1.56,1.16,2.88,2.04,3.94.88,1.06,1.95,1.86,3.21,2.39,1.25.53,2.65.8,4.2.8,1.38,0,2.58-.15,3.59-.46,1.01-.3,1.86-.65,2.55-1.02.69-.38,1.24-.72,1.64-1.02.4-.3.7-.46.88-.46.24,0,.42.09.55.28l.72.88c-.44.55-1.03,1.07-1.75,1.55-.73.48-1.54.89-2.43,1.23-.89.34-1.85.61-2.87.81-1.02.2-2.05.3-3.08.3-1.88,0-3.59-.33-5.14-.98-1.55-.65-2.87-1.61-3.98-2.86-1.11-1.25-1.96-2.78-2.57-4.6-.6-1.81-.91-3.89-.91-6.23,0-1.97.28-3.79.84-5.46.56-1.67,1.37-3.1,2.43-4.31,1.06-1.21,2.36-2.15,3.89-2.83,1.54-.68,3.28-1.02,5.24-1.02Zm.04,1.96c-1.42,0-2.69.22-3.81.66-1.12.44-2.09,1.08-2.91,1.91-.82.83-1.48,1.82-1.99,2.98-.51,1.16-.84,2.46-1.01,3.89h18.09c0-1.47-.2-2.8-.61-3.97-.41-1.17-.97-2.16-1.71-2.97-.74-.81-1.62-1.43-2.65-1.87-1.03-.43-2.17-.65-3.42-.65Z" fill="#fff"/>
    <path d="m186.83,134.7v-27.49h1.38c.31,0,.54.06.68.19s.22.35.23.66l.22,5.8c.88-2.23,2.06-3.97,3.54-5.24,1.47-1.26,3.29-1.89,5.44-1.89.83,0,1.59.09,2.29.26.7.17,1.36.43,1.99.76l-.36,1.82c-.06.29-.24.44-.55.44-.11,0-.27-.04-.47-.11-.2-.07-.46-.16-.76-.25-.3-.09-.68-.18-1.12-.25-.44-.07-.95-.11-1.52-.11-2.08,0-3.79.65-5.12,1.94-1.34,1.29-2.42,3.15-3.25,5.58v17.87h-2.62Z" fill="#fff"/>
    <path d="m224.92,134.7c-.55,0-.89-.26-1.02-.78l-.39-3.51c-.76.74-1.51,1.4-2.25,1.99s-1.52,1.09-2.33,1.49-1.68.71-2.62.92c-.94.21-1.97.32-3.09.32-.94,0-1.85-.14-2.73-.41s-1.67-.7-2.35-1.27c-.68-.57-1.23-1.3-1.64-2.2-.41-.89-.62-1.96-.62-3.22,0-1.16.33-2.24,1-3.23.66-.99,1.7-1.86,3.11-2.6,1.41-.74,3.22-1.32,5.44-1.77,2.22-.44,4.89-.7,8-.78v-2.87c0-2.54-.55-4.5-1.64-5.87-1.1-1.37-2.72-2.06-4.88-2.06-1.33,0-2.45.18-3.38.55-.93.37-1.72.78-2.36,1.22s-1.17.85-1.57,1.21c-.4.37-.75.55-1.02.55-.37,0-.65-.17-.83-.5l-.47-.8c1.44-1.43,2.95-2.52,4.53-3.26,1.58-.74,3.38-1.1,5.39-1.1,1.47,0,2.76.23,3.87.7,1.1.47,2.02,1.14,2.75,2.02.73.88,1.28,1.94,1.64,3.18.37,1.24.55,2.63.55,4.16v17.9h-1.05Zm-11.05-1.46c1.07,0,2.05-.12,2.94-.35.89-.23,1.72-.55,2.49-.97s1.48-.91,2.14-1.48c.66-.57,1.32-1.19,1.96-1.85v-7.15c-2.62.07-4.87.27-6.75.59-1.89.32-3.44.76-4.67,1.31-1.23.55-2.13,1.21-2.71,1.98-.58.76-.87,1.63-.87,2.61,0,.92.15,1.72.46,2.39.3.67.7,1.23,1.2,1.66.5.43,1.08.75,1.74.95s1.35.3,2.07.3Z" fill="#fff"/>
    <path d="m241.75,135.14c-1.86,0-3.31-.52-4.34-1.55-1.03-1.03-1.55-2.62-1.55-4.78v-18.79h-3.95c-.2,0-.37-.06-.5-.17s-.19-.26-.19-.47v-1.02l4.7-.33.66-9.83c.02-.17.09-.31.2-.44.12-.13.28-.19.48-.19h1.23v10.5h8.65v1.96h-8.65v18.65c0,.76.1,1.41.29,1.95.19.54.46.99.8,1.34.34.35.74.61,1.2.77s.96.25,1.49.25c.66,0,1.23-.1,1.71-.29.48-.19.89-.4,1.24-.64s.64-.44.86-.64c.22-.19.39-.29.52-.29.15,0,.29.09.44.27l.72,1.16c-.7.78-1.59,1.4-2.67,1.87-1.08.47-2.2.7-3.36.7Z" fill="#fff"/>
    <path d="m258.51,97.73c0,.33-.07.64-.21.92-.14.28-.32.54-.54.76-.22.22-.48.39-.77.52-.3.13-.61.19-.94.19s-.65-.06-.94-.19c-.3-.13-.55-.3-.77-.52s-.4-.48-.52-.76-.19-.59-.19-.92.06-.65.19-.95.3-.57.52-.79.48-.4.77-.52c.29-.13.61-.19.94-.19s.64.06.94.19c.29.13.55.3.77.52.22.22.4.48.54.79.14.3.21.62.21.95Zm-1.16,9.47v27.49h-2.62v-27.49h2.62Z" fill="#fff"/>
    <path d="m277.55,106.77c1.97,0,3.73.34,5.29,1.01,1.56.67,2.87,1.63,3.94,2.86s1.88,2.72,2.45,4.46c.56,1.74.84,3.69.84,5.84s-.28,4.1-.84,5.83c-.56,1.73-1.38,3.21-2.45,4.45-1.07,1.24-2.38,2.18-3.94,2.85-1.56.66-3.32.99-5.29.99s-3.74-.33-5.29-.99c-1.56-.66-2.87-1.61-3.95-2.85-1.08-1.23-1.9-2.71-2.46-4.45-.56-1.73-.84-3.67-.84-5.83s.28-4.1.84-5.84c.56-1.74,1.38-3.23,2.46-4.46s2.39-2.19,3.95-2.86c1.55-.67,3.32-1.01,5.29-1.01Zm0,26.22c1.64,0,3.07-.28,4.3-.84,1.22-.56,2.25-1.37,3.07-2.42s1.43-2.32,1.84-3.8c.41-1.48.61-3.14.61-4.99s-.2-3.48-.61-4.97c-.4-1.49-1.02-2.77-1.84-3.83s-1.84-1.87-3.07-2.45c-1.23-.57-2.66-.86-4.3-.86s-3.07.28-4.3.86c-1.23.57-2.25,1.39-3.07,2.45-.82,1.06-1.44,2.33-1.85,3.83-.41,1.49-.62,3.15-.62,4.97s.21,3.5.62,4.99c.41,1.48,1.03,2.75,1.85,3.8.82,1.05,1.84,1.86,3.07,2.42,1.22.56,2.66.84,4.3.84Z" fill="#fff"/>
    <path d="m296.97,134.7v-27.49h1.44c.48,0,.76.23.83.69l.25,4.14c1.25-1.58,2.71-2.86,4.38-3.83,1.67-.97,3.52-1.45,5.57-1.45,1.51,0,2.84.24,3.99.72,1.15.48,2.1,1.17,2.86,2.07.75.9,1.33,1.99,1.71,3.26.39,1.27.58,2.71.58,4.31v17.57h-2.62v-17.57c0-2.58-.59-4.6-1.77-6.07s-2.98-2.2-5.41-2.2c-1.81,0-3.48.47-5.03,1.4-1.55.93-2.93,2.2-4.14,3.83v20.61h-2.62Z" fill="#fff"/>
  </g>
  <g>
    <path d="m51.1,185.76c.35.17.77.25,1.26.25.69,0,1.25-.3,1.68-.89.43-.6.64-1.64.64-3.13v-13.81h-2.4v-3.66h10.51v3.66h-2.32v13.81c0,1.23-.14,2.33-.42,3.3-.28.97-.73,1.78-1.36,2.45s-1.44,1.16-2.44,1.51c-1.01.35-2.23.52-3.66.52-.26,0-.52-.03-.77-.08s-.48-.13-.68-.22l-.03-3.69Z" fill="#335c64"/>
    <path d="m71.59,184.42c-1.01,0-1.98-.15-2.92-.46s-1.77-.77-2.5-1.38c-.73-.62-1.31-1.39-1.73-2.32-.43-.93-.64-2.01-.64-3.24s.22-2.21.66-3.12c.44-.9,1.02-1.66,1.73-2.28.72-.61,1.54-1.08,2.46-1.4.92-.32,1.86-.47,2.81-.47,1.1,0,2.12.17,3.07.52.95.34,1.77.84,2.47,1.48.7.64,1.24,1.43,1.64,2.35.39.92.59,1.97.59,3.14s-.2,2.18-.6,3.06c-.4.89-.95,1.64-1.63,2.25-.69.61-1.5,1.08-2.42,1.4-.92.32-1.91.48-2.98.48Zm0-3.58c.3,0,.56-.09.8-.28.23-.19.43-.45.6-.78.17-.34.29-.73.38-1.19.08-.46.13-.95.13-1.47s-.05-1.01-.14-1.47c-.09-.46-.22-.85-.39-1.19-.17-.34-.38-.6-.63-.8s-.55-.29-.88-.29c-.28,0-.54.09-.77.28-.23.19-.43.45-.6.78-.17.34-.3.73-.41,1.17-.1.45-.15.92-.15,1.43,0,1.16.2,2.08.59,2.77.39.69.88,1.03,1.48,1.03Z" fill="#335c64"/>
    <path d="m88.05,184.06h-7.83v-3.66h1.17v-6.68h-1.17v-3.63h6.48v10.31h1.34v3.66Zm-7.04-18.05c0-.32.07-.64.2-.98.13-.34.32-.64.57-.92s.57-.51.95-.68c.38-.18.81-.26,1.3-.26s.92.09,1.3.26.7.41.96.68c.26.28.46.59.6.92.14.34.21.66.21.98,0,.78-.26,1.45-.78,2-.52.55-1.29.83-2.29.83-.45,0-.85-.08-1.22-.25-.36-.17-.68-.39-.95-.66s-.48-.57-.63-.91c-.15-.33-.22-.67-.22-1.01Z" fill="#335c64"/>
    <path d="m98.05,184.06h-8.61v-3.66h1.17v-6.68h-1.17v-3.63h5.95l.64,1.73c.48-.65,1.05-1.19,1.69-1.61s1.41-.63,2.31-.63c1.08,0,1.95.18,2.61.54.66.36,1.17.84,1.54,1.43s.61,1.25.73,1.98.18,1.47.18,2.19v4.67h1.31v3.66h-7.04v-7.63c0-.24,0-.51-.01-.81,0-.3-.06-.58-.15-.84-.09-.26-.25-.48-.46-.67-.21-.19-.53-.28-.94-.28-.35,0-.65.08-.88.24s-.42.36-.54.61c-.13.25-.22.53-.27.84s-.07.61-.07.91v3.97h2.01v3.66Z" fill="#335c64"/>
    <path d="m114.23,170.08h1.51v-2.57l5.14-1.65v4.22h2.65v3.63h-2.65v4.98c0,.13,0,.26-.01.39,0,.13-.01.27-.01.42,0,.37.05.7.15.99.1.29.36.43.77.43.19,0,.46-.05.83-.15.36-.1.67-.21.94-.32v3.58c-.21.09-.47.17-.78.24-.32.06-.64.12-.98.15-.33.04-.65.07-.94.1-.29.03-.52.04-.68.04-1.04,0-1.86-.14-2.44-.42s-1.02-.67-1.3-1.17-.46-1.12-.53-1.84-.12-1.54-.14-2.43v-4.98h-1.51v-3.63Z" fill="#335c64"/>
    <path d="m133.43,184.06h-8.78v-3.66h1.17v-13.67h-1.17v-3.63h6.76v8.72c.07-.13.25-.32.53-.56.28-.24.62-.49,1.02-.74s.85-.47,1.34-.66c.49-.19.99-.28,1.5-.28,1.08,0,1.94.18,2.59.54.64.36,1.14.84,1.48,1.43.35.59.57,1.25.67,1.98s.15,1.47.15,2.19v4.67h1.31v3.66h-7.18v-7.6c0-.24,0-.51-.03-.81-.02-.3-.08-.58-.18-.84-.1-.26-.27-.48-.49-.67s-.54-.28-.95-.28c-.35,0-.65.08-.88.24-.23.16-.41.36-.54.61s-.22.53-.27.84-.07.61-.07.91v3.94h2.01v3.66Z" fill="#335c64"/>
    <path d="m157.16,182.13c-1.04.89-2.14,1.52-3.3,1.89-1.15.36-2.46.54-3.91.54-.88,0-1.75-.14-2.63-.43-.88-.29-1.66-.74-2.36-1.34s-1.27-1.39-1.72-2.35-.67-2.11-.67-3.45c0-1.14.2-2.16.59-3.06.39-.9.92-1.67,1.59-2.31.67-.63,1.46-1.11,2.38-1.44.91-.33,1.9-.49,2.96-.49,1.15,0,2.17.17,3.06.5.88.33,1.62.8,2.22,1.4.6.6,1.04,1.3,1.34,2.11s.45,1.69.45,2.64c0,.37-.03.74-.08,1.1-.06.36-.14.7-.25,1.02h-8.8c.04.19.1.41.18.67.08.26.23.51.43.75.21.24.48.45.84.62.35.17.83.25,1.42.25.24,0,.51,0,.8-.03.29-.02.6-.07.94-.17s.69-.23,1.06-.41.74-.42,1.12-.74l2.35,2.71Zm-6.9-8.66c-.43,0-.78.08-1.05.25-.27.17-.48.37-.64.6-.16.23-.27.48-.34.74-.07.26-.11.48-.13.64h4.22c0-.26-.03-.53-.08-.8-.05-.27-.15-.51-.29-.73-.14-.21-.34-.39-.62-.52-.27-.13-.63-.2-1.08-.2Z" fill="#335c64"/>
    <path d="m186.67,168.13h-1.84v15.93h-6.01l-7.13-10.65v7.04h2.15v3.61h-8.58v-3.61h1.65v-12.32h-1.62v-3.6h8.02l6.88,10.26v-6.65h-1.93v-3.6h8.41v3.6Z" fill="#335c64"/>
    <path d="m188.37,171.26c.28-.17.63-.36,1.06-.59s.91-.44,1.44-.66c.53-.22,1.1-.39,1.71-.53.61-.14,1.23-.21,1.89-.21.84,0,1.7.09,2.6.27s1.71.48,2.44.92c.74.44,1.34,1.03,1.82,1.77.47.75.71,1.68.71,2.8v5.45h1.68v3.58h-5.98l-.67-1.26c-.26.35-.55.65-.88.88-.33.23-.66.41-1.01.54-.34.13-.68.22-1.02.28-.34.06-.63.08-.87.08-.67,0-1.33-.09-1.98-.28s-1.24-.46-1.76-.84c-.52-.37-.95-.85-1.27-1.44s-.49-1.29-.49-2.11.15-1.49.46-2.12.73-1.17,1.26-1.62c.53-.45,1.15-.79,1.86-1.03.71-.24,1.45-.36,2.24-.36.41,0,.78.04,1.1.13.33.08.61.18.84.29s.42.22.56.34c.14.11.23.19.27.22v-.98c0-.63-.25-1.05-.76-1.26s-1.14-.31-1.9-.31c-.84,0-1.61.14-2.31.42-.7.28-1.32.57-1.86.87l-1.17-3.24Zm6.2,9.7c.43,0,.8-.1,1.12-.31.32-.21.54-.41.67-.62v-1.06s-.06-.1-.13-.18c-.06-.08-.16-.17-.29-.26-.13-.09-.29-.18-.49-.25-.2-.07-.44-.11-.74-.11-.56,0-.97.14-1.23.42s-.39.63-.39,1.06c0,.39.14.71.42.95s.63.36,1.06.36Z" fill="#335c64"/>
    <path d="m204.55,170.08h1.51v-2.57l5.14-1.65v4.22h2.65v3.63h-2.65v4.98c0,.13,0,.26-.01.39,0,.13-.01.27-.01.42,0,.37.05.7.15.99.1.29.36.43.77.43.19,0,.46-.05.83-.15.36-.1.67-.21.94-.32v3.58c-.21.09-.47.17-.78.24-.32.06-.64.12-.98.15-.33.04-.65.07-.94.1-.29.03-.52.04-.68.04-1.04,0-1.86-.14-2.44-.42s-1.02-.67-1.3-1.17-.46-1.12-.53-1.84-.12-1.54-.14-2.43v-4.98h-1.51v-3.63Z" fill="#335c64"/>
    <path d="m222.8,184.06h-7.83v-3.66h1.17v-6.68h-1.17v-3.63h6.48v10.31h1.34v3.66Zm-7.04-18.05c0-.32.07-.64.2-.98.13-.34.32-.64.57-.92s.57-.51.95-.68c.38-.18.81-.26,1.3-.26s.92.09,1.3.26.7.41.96.68c.26.28.46.59.6.92.14.34.21.66.21.98,0,.78-.26,1.45-.78,2-.52.55-1.29.83-2.29.83-.45,0-.85-.08-1.22-.25-.36-.17-.68-.39-.95-.66s-.48-.57-.63-.91c-.15-.33-.22-.67-.22-1.01Z" fill="#335c64"/>
    <path d="m231.61,184.42c-1.01,0-1.98-.15-2.92-.46s-1.77-.77-2.5-1.38c-.73-.62-1.31-1.39-1.73-2.32-.43-.93-.64-2.01-.64-3.24s.22-2.21.66-3.12c.44-.9,1.02-1.66,1.73-2.28.72-.61,1.54-1.08,2.46-1.4.92-.32,1.86-.47,2.81-.47,1.1,0,2.12.17,3.07.52.95.34,1.77.84,2.47,1.48.7.64,1.24,1.43,1.64,2.35.39.92.59,1.97.59,3.14s-.2,2.18-.6,3.06c-.4.89-.95,1.64-1.63,2.25-.69.61-1.5,1.08-2.42,1.4-.92.32-1.91.48-2.98.48Zm0-3.58c.3,0,.56-.09.8-.28.23-.19.43-.45.6-.78.17-.34.29-.73.38-1.19.08-.46.13-.95.13-1.47s-.05-1.01-.14-1.47c-.09-.46-.22-.85-.39-1.19-.17-.34-.38-.6-.63-.8s-.55-.29-.88-.29c-.28,0-.54.09-.77.28-.23.19-.43.45-.6.78-.17.34-.3.73-.41,1.17-.1.45-.15.92-.15,1.43,0,1.16.2,2.08.59,2.77.39.69.88,1.03,1.48,1.03Z" fill="#335c64"/>
    <path d="m248.85,184.06h-8.61v-3.66h1.17v-6.68h-1.17v-3.63h5.95l.64,1.73c.48-.65,1.05-1.19,1.69-1.61s1.41-.63,2.31-.63c1.08,0,1.95.18,2.61.54.66.36,1.17.84,1.54,1.43s.61,1.25.73,1.98.18,1.47.18,2.19v4.67h1.31v3.66h-7.04v-7.63c0-.24,0-.51-.01-.81,0-.3-.06-.58-.15-.84-.09-.26-.25-.48-.46-.67-.21-.19-.53-.28-.94-.28-.35,0-.65.08-.88.24s-.42.36-.54.61c-.13.25-.22.53-.27.84s-.07.61-.07.91v3.97h2.01v3.66Z" fill="#335c64"/>
    <path d="m258.63,171.26c.28-.17.63-.36,1.06-.59s.91-.44,1.44-.66c.53-.22,1.1-.39,1.71-.53.61-.14,1.23-.21,1.89-.21.84,0,1.7.09,2.6.27s1.71.48,2.44.92c.74.44,1.34,1.03,1.82,1.77.47.75.71,1.68.71,2.8v5.45h1.68v3.58h-5.98l-.67-1.26c-.26.35-.55.65-.88.88-.33.23-.66.41-1.01.54-.34.13-.68.22-1.02.28-.34.06-.63.08-.87.08-.67,0-1.33-.09-1.98-.28s-1.24-.46-1.76-.84c-.52-.37-.95-.85-1.27-1.44s-.49-1.29-.49-2.11.15-1.49.46-2.12.73-1.17,1.26-1.62c.53-.45,1.15-.79,1.86-1.03.71-.24,1.45-.36,2.24-.36.41,0,.78.04,1.1.13.33.08.61.18.84.29s.42.22.56.34c.14.11.23.19.27.22v-.98c0-.63-.25-1.05-.76-1.26s-1.14-.31-1.9-.31c-.84,0-1.61.14-2.31.42-.7.28-1.32.57-1.86.87l-1.17-3.24Zm6.2,9.7c.43,0,.8-.1,1.12-.31.32-.21.54-.41.67-.62v-1.06s-.06-.1-.13-.18c-.06-.08-.16-.17-.29-.26-.13-.09-.29-.18-.49-.25-.2-.07-.44-.11-.74-.11-.56,0-.97.14-1.23.42s-.39.63-.39,1.06c0,.39.14.71.42.95s.63.36,1.06.36Z" fill="#335c64"/>
    <path d="m283.25,184.06h-8.16v-3.66h1.2v-13.69h-1.17v-3.61h6.48v17.3h1.65v3.66Z" fill="#335c64"/>
    <path d="m69.29,214.1c-.48.52-1.02,1.02-1.62,1.5-.6.47-1.25.89-1.96,1.26-.71.36-1.47.65-2.29.87s-1.69.32-2.6.32c-1.49,0-2.84-.23-4.05-.68-1.21-.45-2.25-1.12-3.1-1.98s-1.52-1.92-2-3.16c-.47-1.24-.71-2.64-.71-4.21s.27-3.04.81-4.32c.54-1.28,1.23-2.36,2.07-3.24s1.75-1.56,2.75-2.03c1-.46,1.95-.7,2.86-.7.69,0,1.29.08,1.8.25.51.17.94.36,1.3.57.35.22.63.43.83.64.2.22.32.36.38.43l.64-1.56h4.39v7.94h-5c-.02-.45-.09-.88-.22-1.31-.13-.43-.31-.81-.55-1.13s-.53-.59-.89-.78c-.36-.2-.8-.29-1.3-.29s-.96.15-1.37.43c-.41.29-.76.68-1.05,1.19s-.51,1.09-.67,1.76c-.16.67-.24,1.39-.24,2.15,0,.69.09,1.35.27,1.98.18.63.44,1.19.78,1.68.34.48.77.87,1.27,1.16.5.29,1.09.43,1.76.43.58,0,1.13-.13,1.65-.39.52-.26.98-.55,1.37-.88.39-.33.71-.63.96-.92s.41-.47.46-.55l3.27,3.58Z" fill="#335c64"/>
    <path d="m77.82,217.96c-1.01,0-1.98-.15-2.92-.46s-1.77-.77-2.5-1.38c-.73-.62-1.31-1.39-1.73-2.32-.43-.93-.64-2.01-.64-3.24s.22-2.21.66-3.12c.44-.9,1.02-1.66,1.73-2.28.72-.61,1.54-1.08,2.46-1.4.92-.32,1.86-.47,2.81-.47,1.1,0,2.12.17,3.07.52.95.34,1.77.84,2.47,1.48.7.64,1.24,1.43,1.64,2.35.39.92.59,1.97.59,3.14s-.2,2.18-.6,3.06c-.4.89-.95,1.64-1.63,2.25-.69.61-1.5,1.08-2.42,1.4-.92.32-1.91.48-2.98.48Zm0-3.58c.3,0,.56-.09.8-.28.23-.19.43-.45.6-.78.17-.34.29-.73.38-1.19.08-.46.13-.95.13-1.47s-.05-1.01-.14-1.47c-.09-.46-.22-.85-.39-1.19-.17-.34-.38-.6-.63-.8s-.55-.29-.88-.29c-.28,0-.54.09-.77.28-.23.19-.43.45-.6.78-.17.34-.3.73-.41,1.17-.1.45-.15.92-.15,1.43,0,1.16.2,2.08.59,2.77.39.69.88,1.03,1.48,1.03Z" fill="#335c64"/>
    <path d="m95.06,217.59h-8.61v-3.66h1.17v-6.68h-1.17v-3.63h5.95l.64,1.73c.48-.65,1.05-1.19,1.69-1.61s1.41-.63,2.31-.63c1.08,0,1.95.18,2.61.54.66.36,1.17.84,1.54,1.43s.61,1.25.73,1.98.18,1.47.18,2.19v4.67h1.31v3.66h-7.04v-7.63c0-.24,0-.51-.01-.81,0-.3-.06-.58-.15-.84-.09-.26-.25-.48-.46-.67-.21-.19-.53-.28-.94-.28-.35,0-.65.08-.88.24s-.42.36-.54.61c-.13.25-.22.53-.27.84s-.07.61-.07.91v3.97h2.01v3.66Z" fill="#335c64"/>
    <path d="m113.06,213.07c0-.15.02-.34.07-.57.05-.23.11-.49.18-.77s.16-.57.26-.87.21-.59.32-.87l1.34-2.82h-1.48v-3.55h7.21v3.55h-1.45l-4.83,10.42h-4.33l-5.2-10.42h-1.31v-3.55h8.5v3.55h-1.4l1.29,2.96c.19.54.34,1.09.47,1.65s.21.99.25,1.29h.11Z" fill="#335c64"/>
    <path d="m135.69,215.66c-1.04.89-2.14,1.52-3.3,1.89-1.15.36-2.46.54-3.91.54-.88,0-1.75-.14-2.63-.43-.88-.29-1.66-.74-2.36-1.34s-1.27-1.39-1.72-2.35-.67-2.11-.67-3.45c0-1.14.2-2.16.59-3.06.39-.9.92-1.67,1.59-2.31.67-.63,1.46-1.11,2.38-1.44.91-.33,1.9-.49,2.96-.49,1.15,0,2.17.17,3.06.5.88.33,1.62.8,2.22,1.4.6.6,1.04,1.3,1.34,2.11s.45,1.69.45,2.64c0,.37-.03.74-.08,1.1-.06.36-.14.7-.25,1.02h-8.8c.04.19.1.41.18.67.08.26.23.51.43.75.21.24.48.45.84.62.35.17.83.25,1.42.25.24,0,.51,0,.8-.03.29-.02.6-.07.94-.17s.69-.23,1.06-.41.74-.42,1.12-.74l2.35,2.71Zm-6.9-8.66c-.43,0-.78.08-1.05.25-.27.17-.48.37-.64.6-.16.23-.27.48-.34.74-.07.26-.11.48-.13.64h4.22c0-.26-.03-.53-.08-.8-.05-.27-.15-.51-.29-.73-.14-.21-.34-.39-.62-.52-.27-.13-.63-.2-1.08-.2Z" fill="#335c64"/>
    <path d="m144.72,217.59h-7.91v-3.66h1.23v-6.68h-1.2v-3.63h5.26l.84,1.79c.19-.33.38-.65.59-.95s.47-.56.78-.8c.32-.23.71-.41,1.17-.54s1.06-.2,1.79-.2v5.03c-1.27,0-2.24.21-2.92.63s-1.02,1.24-1.02,2.47v2.88h1.4v3.66Z" fill="#335c64"/>
    <path d="m148.1,217.59v-5.03h3.75c0,.37.12.68.35.92.23.24.51.43.82.57.32.14.64.24.98.29.34.06.61.08.81.08.28,0,.55-.06.83-.18.27-.12.41-.38.41-.77,0-.26-.19-.47-.57-.63-.38-.16-.87-.31-1.45-.46-.59-.15-1.22-.33-1.89-.53-.67-.2-1.3-.49-1.89-.85s-1.07-.84-1.45-1.43-.57-1.34-.57-2.25c0-.71.16-1.32.49-1.83.33-.51.74-.93,1.23-1.26s1.02-.57,1.59-.73,1.1-.24,1.61-.24c.95,0,1.81.22,2.57.64s1.3.94,1.59,1.54l.22-1.84h3.44v5.03h-3.63c0-.3-.08-.57-.25-.82s-.39-.47-.66-.67c-.27-.2-.57-.35-.91-.46-.34-.11-.68-.17-1.03-.17-.3,0-.56.08-.77.24-.22.16-.32.42-.32.77,0,.32.2.57.59.76.39.19.88.37,1.47.54.59.18,1.22.37,1.91.59.69.22,1.33.5,1.91.85.59.35,1.08.81,1.47,1.36.39.55.59,1.25.59,2.11,0,.65-.14,1.24-.43,1.76-.29.52-.67.96-1.14,1.33-.48.36-1.03.64-1.66.83-.63.19-1.29.28-1.96.28-1.01,0-1.89-.21-2.64-.62s-1.3-.88-1.63-1.43l-.25,1.71h-3.49Z" fill="#335c64"/>
    <path d="m162.89,204.79c.28-.17.63-.36,1.06-.59s.91-.44,1.44-.66c.53-.22,1.1-.39,1.71-.53.61-.14,1.23-.21,1.89-.21.84,0,1.7.09,2.6.27s1.71.48,2.44.92c.74.44,1.34,1.03,1.82,1.77.47.75.71,1.68.71,2.8v5.45h1.68v3.58h-5.98l-.67-1.26c-.26.35-.55.65-.88.88-.33.23-.66.41-1.01.54-.34.13-.68.22-1.02.28-.34.06-.63.08-.87.08-.67,0-1.33-.09-1.98-.28s-1.24-.46-1.76-.84c-.52-.37-.95-.85-1.27-1.44s-.49-1.29-.49-2.11.15-1.49.46-2.12.73-1.17,1.26-1.62c.53-.45,1.15-.79,1.86-1.03.71-.24,1.45-.36,2.24-.36.41,0,.78.04,1.1.13.33.08.61.18.84.29s.42.22.56.34c.14.11.23.19.27.22v-.98c0-.63-.25-1.05-.76-1.26s-1.14-.31-1.9-.31c-.84,0-1.61.14-2.31.42-.7.28-1.32.57-1.86.87l-1.17-3.24Zm6.2,9.7c.43,0,.8-.1,1.12-.31.32-.21.54-.41.67-.62v-1.06s-.06-.1-.13-.18c-.06-.08-.16-.17-.29-.26-.13-.09-.29-.18-.49-.25-.2-.07-.44-.11-.74-.11-.56,0-.97.14-1.23.42s-.39.63-.39,1.06c0,.39.14.71.42.95s.63.36,1.06.36Z" fill="#335c64"/>
    <path d="m179.07,203.62h1.51v-2.57l5.14-1.65v4.22h2.65v3.63h-2.65v4.98c0,.13,0,.26-.01.39,0,.13-.01.27-.01.42,0,.37.05.7.15.99.1.29.36.43.77.43.19,0,.46-.05.83-.15.36-.1.67-.21.94-.32v3.58c-.21.09-.47.17-.78.24-.32.06-.64.12-.98.15-.33.04-.65.07-.94.1-.29.03-.52.04-.68.04-1.04,0-1.86-.14-2.44-.42s-1.02-.67-1.3-1.17-.46-1.12-.53-1.84-.12-1.54-.14-2.43v-4.98h-1.51v-3.63Z" fill="#335c64"/>
    <path d="m197.32,217.59h-7.83v-3.66h1.17v-6.68h-1.17v-3.63h6.48v10.31h1.34v3.66Zm-7.04-18.05c0-.32.07-.64.2-.98.13-.34.32-.64.57-.92s.57-.51.95-.68c.38-.18.81-.26,1.3-.26s.92.09,1.3.26.7.41.96.68c.26.28.46.59.6.92.14.34.21.66.21.98,0,.78-.26,1.45-.78,2-.52.55-1.29.83-2.29.83-.45,0-.85-.08-1.22-.25-.36-.17-.68-.39-.95-.66s-.48-.57-.63-.91c-.15-.33-.22-.67-.22-1.01Z" fill="#335c64"/>
    <path d="m206.12,217.96c-1.01,0-1.98-.15-2.92-.46s-1.77-.77-2.5-1.38c-.73-.62-1.31-1.39-1.73-2.32-.43-.93-.64-2.01-.64-3.24s.22-2.21.66-3.12c.44-.9,1.02-1.66,1.73-2.28.72-.61,1.54-1.08,2.46-1.4.92-.32,1.86-.47,2.81-.47,1.1,0,2.12.17,3.07.52.95.34,1.77.84,2.47,1.48.7.64,1.24,1.43,1.64,2.35.39.92.59,1.97.59,3.14s-.2,2.18-.6,3.06c-.4.89-.95,1.64-1.63,2.25-.69.61-1.5,1.08-2.42,1.4-.92.32-1.91.48-2.98.48Zm0-3.58c.3,0,.56-.09.8-.28.23-.19.43-.45.6-.78.17-.34.29-.73.38-1.19.08-.46.13-.95.13-1.47s-.05-1.01-.14-1.47c-.09-.46-.22-.85-.39-1.19-.17-.34-.38-.6-.63-.8s-.55-.29-.88-.29c-.28,0-.54.09-.77.28-.23.19-.43.45-.6.78-.17.34-.3.73-.41,1.17-.1.45-.15.92-.15,1.43,0,1.16.2,2.08.59,2.77.39.69.88,1.03,1.48,1.03Z" fill="#335c64"/>
    <path d="m223.36,217.59h-8.61v-3.66h1.17v-6.68h-1.17v-3.63h5.95l.64,1.73c.48-.65,1.05-1.19,1.69-1.61s1.41-.63,2.31-.63c1.08,0,1.95.18,2.61.54.66.36,1.17.84,1.54,1.43s.61,1.25.73,1.98.18,1.47.18,2.19v4.67h1.31v3.66h-7.04v-7.63c0-.24,0-.51-.01-.81,0-.3-.06-.58-.15-.84-.09-.26-.25-.48-.46-.67-.21-.19-.53-.28-.94-.28-.35,0-.65.08-.88.24s-.42.36-.54.61c-.13.25-.22.53-.27.84s-.07.61-.07.91v3.97h2.01v3.66Z" fill="#335c64"/>
    <path d="m232.92,214.74c0-.35.07-.71.21-1.06.14-.35.35-.67.63-.95s.62-.51,1.01-.68c.39-.18.84-.26,1.34-.26s.95.08,1.36.24c.4.16.75.37,1.05.64s.53.59.68.95c.16.36.24.74.24,1.13,0,.78-.3,1.46-.89,2.03-.6.57-1.41.85-2.43.85-.45,0-.87-.08-1.26-.25-.39-.17-.73-.38-1.02-.64-.29-.26-.51-.56-.67-.91-.16-.34-.24-.7-.24-1.08Zm.11-11.38v-5.31h6.68v5.31l-1.48,7.04h-3.69l-1.51-7.04Z" fill="#335c64"/>
  </g>
</svg>